# Rim quarter of belt_chain_holder_half.obj (z = 0.010 outline, cornered at (-0.02, 0.02)),
# extruded 0..0.005 as a closed collision slab, like quarter_ellipse_bottom/top.obj.
o quarter_ellipse_rim
v -0.1218750 0.0200000 0.0000000
v -0.0200000 0.0200000 0.0000000
v -0.0200000 0.0888405 0.0000000
v -0.0267247 0.0879190 0.0000000
v -0.0373105 0.0858973 0.0000000
v -0.0476098 0.0832163 0.0000000
v -0.0575437 0.0798964 0.0000000
v -0.0670358 0.0759632 0.0000000
v -0.0760134 0.0714469 0.0000000
v -0.0844075 0.0663822 0.0000000
v -0.0921536 0.0608079 0.0000000
v -0.0991923 0.0547668 0.0000000
v -0.1054700 0.0483053 0.0000000
v -0.1109370 0.0414730 0.0000000
v -0.1155530 0.0343224 0.0000000
v -0.1192600 0.0269606 0.0000000
v -0.1218750 0.0200000 0.0050000
v -0.0200000 0.0200000 0.0050000
v -0.0200000 0.0888405 0.0050000
v -0.0267247 0.0879190 0.0050000
v -0.0373105 0.0858973 0.0050000
v -0.0476098 0.0832163 0.0050000
v -0.0575437 0.0798964 0.0050000
v -0.0670358 0.0759632 0.0050000
v -0.0760134 0.0714469 0.0050000
v -0.0844075 0.0663822 0.0050000
v -0.0921536 0.0608079 0.0050000
v -0.0991923 0.0547668 0.0050000
v -0.1054700 0.0483053 0.0050000
v -0.1109370 0.0414730 0.0050000
v -0.1155530 0.0343224 0.0050000
v -0.1192600 0.0269606 0.0050000
v -0.0750679 0.0591374 0.0000000
v -0.0750679 0.0591374 0.0050000
f 34 17 18
f 33 2 1
f 1 2 18
f 1 18 17
f 34 18 19
f 33 3 2
f 2 3 19
f 2 19 18
f 34 19 20
f 33 4 3
f 3 4 20
f 3 20 19
f 34 20 21
f 33 5 4
f 4 5 21
f 4 21 20
f 34 21 22
f 33 6 5
f 5 6 22
f 5 22 21
f 34 22 23
f 33 7 6
f 6 7 23
f 6 23 22
f 34 23 24
f 33 8 7
f 7 8 24
f 7 24 23
f 34 24 25
f 33 9 8
f 8 9 25
f 8 25 24
f 34 25 26
f 33 10 9
f 9 10 26
f 9 26 25
f 34 26 27
f 33 11 10
f 10 11 27
f 10 27 26
f 34 27 28
f 33 12 11
f 11 12 28
f 11 28 27
f 34 28 29
f 33 13 12
f 12 13 29
f 12 29 28
f 34 29 30
f 33 14 13
f 13 14 30
f 13 30 29
f 34 30 31
f 33 15 14
f 14 15 31
f 14 31 30
f 34 31 32
f 33 16 15
f 15 16 32
f 15 32 31
f 34 32 17
f 33 1 16
f 16 1 17
f 16 17 32
